<svg xmlns="http://www.w3.org/2000/svg" width="2000" height="1648" viewBox="0 0 1000 824" font-family="'Helvetica Neue', Arial, sans-serif">
<defs>
  <linearGradient id="bgSand" x1="0" y1="0" x2="0" y2="1">
    <stop offset="0" stop-color="#FCFBF8"/><stop offset="0.55" stop-color="#FAF8F5"/><stop offset="1" stop-color="#F0ECE6"/>
  </linearGradient>
  <linearGradient id="gTeal" x1="0" y1="0" x2="1" y2="1">
    <stop offset="0" stop-color="#2A8067"/><stop offset="1" stop-color="#12473A"/>
  </linearGradient>
  <linearGradient id="gRose" x1="0" y1="0" x2="1" y2="1">
    <stop offset="0" stop-color="#C76E7E"/><stop offset="1" stop-color="#8A4250"/>
  </linearGradient>
  <linearGradient id="sw1" x1="0" y1="0" x2="1" y2="1"><stop offset="0" stop-color="#EAF3F0"/><stop offset="1" stop-color="#CFE4DD"/></linearGradient>
  <linearGradient id="sw2" x1="0" y1="0" x2="1" y2="1"><stop offset="0" stop-color="#F7EBEE"/><stop offset="1" stop-color="#E7CDD4"/></linearGradient>
  <linearGradient id="sw3" x1="0" y1="0" x2="1" y2="1"><stop offset="0" stop-color="#F6EEDD"/><stop offset="1" stop-color="#E6D6B8"/></linearGradient>
  <linearGradient id="sw4" x1="0" y1="0" x2="1" y2="1"><stop offset="0" stop-color="#EDF1EA"/><stop offset="1" stop-color="#D3DEC8"/></linearGradient>
  <filter id="fCard" x="-40%" y="-40%" width="180%" height="180%"><feDropShadow dx="0" dy="22" stdDeviation="34" flood-color="#2A211C" flood-opacity="0.16"/></filter>
  <filter id="fSoft" x="-50%" y="-50%" width="200%" height="200%"><feDropShadow dx="0" dy="10" stdDeviation="18" flood-color="#2A211C" flood-opacity="0.16"/></filter>
  <filter id="fBlur" x="-60%" y="-60%" width="220%" height="220%"><feGaussianBlur stdDeviation="46"/></filter>
</defs><rect width="1000" height="824" fill="url(#bgSand)"/><circle cx="190" cy="300" r="150" fill="#E7F1EE" opacity="0.7" filter="url(#fBlur)"/><circle cx="840" cy="600" r="150" fill="#F6E9EC" opacity="0.6" filter="url(#fBlur)"/><text x="64" y="60" font-size="23" fill="#1A1714" font-weight="700" font-family="'Helvetica Neue', Arial, sans-serif" letter-spacing="-0.3">DermaGuru — the embeddable skincare advisor</text><text x="64" y="86" font-size="12.5" fill="#6E6660" font-weight="400" font-family="'Helvetica Neue', Arial, sans-serif">Shadow-DOM web component · brand-tokened · grounded in the store's real catalog · ~7KB</text><rect x="560" y="95" width="132" height="24" rx="12" fill="#FFFFFF" stroke="rgba(20,17,16,0.09)" stroke-width="1"/><circle cx="576" cy="107" r="4" fill="#1F6F5C"/><text x="588" y="111" font-size="10.5" fill="#3A332E" font-weight="700" font-family="'Helvetica Neue', Arial, sans-serif" letter-spacing="0.4">ENGLISH · LTR</text><rect x="308" y="124" width="384" height="600" rx="24" fill="#FFFFFF" filter="url(#fCard)"/><rect x="330" y="146" width="40" height="40" rx="12" fill="url(#gTeal)"/><text x="350" y="172" font-size="18" fill="#fff" font-weight="700" font-family="'Helvetica Neue', Arial, sans-serif" text-anchor="middle">C</text><text x="382" y="164" font-size="15" fill="#1A1714" font-weight="700" font-family="'Helvetica Neue', Arial, sans-serif">Cicabelle</text><circle cx="386" cy="177" r="3" fill="#0F7A55"/><text x="394" y="180" font-size="10.5" fill="#6E6660" font-weight="400" font-family="'Helvetica Neue', Arial, sans-serif">Skincare advisor · online</text><text x="670" y="170" font-size="20" fill="#A39B92" font-weight="400" font-family="'Helvetica Neue', Arial, sans-serif" text-anchor="end">×</text><rect x="330" y="198" width="340" height="26" rx="8" fill="#E7F1EE"/><text x="342" y="215" font-size="10.5" fill="#12473A" font-weight="600" font-family="'Helvetica Neue', Arial, sans-serif">Educational beauty guidance — not medical advice.</text><rect x="330" y="244" width="304" height="58" rx="16" fill="#F1EEE9"/><text x="344" y="268" font-size="12.5" fill="#1A1714" font-weight="400" font-family="'Helvetica Neue', Arial, sans-serif">Hi! Tell me your main skin concern and I'll</text><text x="344" y="286" font-size="12.5" fill="#1A1714" font-weight="400" font-family="'Helvetica Neue', Arial, sans-serif">build a simple routine from this store.</text><rect x="330" y="318" width="74" height="28" rx="14" fill="#FFFFFF" stroke="#D6E7E1" stroke-width="1.2"/><text x="367" y="336" font-size="11.5" fill="#1F6F5C" font-weight="600" font-family="'Helvetica Neue', Arial, sans-serif" text-anchor="middle">Dryness</text><rect x="412" y="318" width="74" height="28" rx="14" fill="#FFFFFF" stroke="#D6E7E1" stroke-width="1.2"/><text x="449" y="336" font-size="11.5" fill="#1F6F5C" font-weight="600" font-family="'Helvetica Neue', Arial, sans-serif" text-anchor="middle">Dullness</text><rect x="494" y="318" width="88" height="28" rx="14" fill="#FFFFFF" stroke="#D6E7E1" stroke-width="1.2"/><text x="538" y="336" font-size="11.5" fill="#1F6F5C" font-weight="600" font-family="'Helvetica Neue', Arial, sans-serif" text-anchor="middle">Sensitivity</text><rect x="420" y="362" width="250" height="32" rx="16" fill="#E7F1EE"/><text x="654" y="383" font-size="12.5" fill="#12473A" font-weight="400" font-family="'Helvetica Neue', Arial, sans-serif" text-anchor="end">Dry skin and some dullness</text><text x="330" y="412" font-size="12" fill="#6E6660" font-weight="400" font-family="'Helvetica Neue', Arial, sans-serif">Here's a gentle two-step routine —</text><rect x="330" y="428" width="340" height="92" rx="16" fill="#FFFFFF" stroke="rgba(20,17,16,0.09)" stroke-width="1"/><rect x="344" y="442" width="64" height="64" rx="12" fill="url(#sw1)"/><g>
    <rect x="370.5" y="450" width="11" height="8" rx="3" fill="#3F6F61"/>
    <rect x="363.5" y="457" width="25" height="43" rx="6.5" fill="#7FB4A4"/>
    <rect x="367.5" y="471" width="17" height="15" rx="3" fill="#ffffff" opacity="0.55"/>
  </g><text x="422" y="450" font-size="8.5" fill="#1F6F5C" font-weight="700" font-family="'Helvetica Neue', Arial, sans-serif" letter-spacing="1">STEP 1 · CLEANSE</text><text x="422" y="470" font-size="13" fill="#1A1714" font-weight="700" font-family="'Helvetica Neue', Arial, sans-serif">Gentle Gel Cleanser</text><text x="422" y="487" font-size="10.5" fill="#6E6660" font-weight="400" font-family="'Helvetica Neue', Arial, sans-serif">Fragrance-free, supports your skin barrier.</text><text x="422" y="506" font-size="12.5" fill="#1F6F5C" font-weight="700" font-family="'Helvetica Neue', Arial, sans-serif">AED 79.00</text><rect x="590" y="484" width="64" height="26" rx="13" fill="#1F6F5C"/><text x="622" y="501" font-size="11" fill="#fff" font-weight="600" font-family="'Helvetica Neue', Arial, sans-serif" text-anchor="middle">Add</text><rect x="330" y="532" width="340" height="92" rx="16" fill="#FFFFFF" stroke="rgba(20,17,16,0.09)" stroke-width="1"/><rect x="344" y="546" width="64" height="64" rx="12" fill="url(#sw1)"/><g>
    <rect x="370.5" y="554" width="11" height="8" rx="3" fill="#3F6F61"/>
    <rect x="363.5" y="561" width="25" height="43" rx="6.5" fill="#7FB4A4"/>
    <rect x="367.5" y="575" width="17" height="15" rx="3" fill="#ffffff" opacity="0.55"/>
  </g><rect x="422" y="543" width="70" height="15" rx="7.5" fill="#F6EDDC"/><text x="457" y="554" font-size="8" fill="#9A6B2F" font-weight="700" font-family="'Helvetica Neue', Arial, sans-serif" text-anchor="middle" letter-spacing="0.6">SPONSORED</text><text x="422" y="576" font-size="13" fill="#1A1714" font-weight="700" font-family="'Helvetica Neue', Arial, sans-serif">Barrier Repair Moisturizer</text><text x="422" y="593" font-size="10.5" fill="#6E6660" font-weight="400" font-family="'Helvetica Neue', Arial, sans-serif">Ceramides to lock in hydration.</text><text x="422" y="612" font-size="12.5" fill="#1F6F5C" font-weight="700" font-family="'Helvetica Neue', Arial, sans-serif">AED 120.00</text><rect x="590" y="588" width="64" height="26" rx="13" fill="#1F6F5C"/><text x="622" y="605" font-size="11" fill="#fff" font-weight="600" font-family="'Helvetica Neue', Arial, sans-serif" text-anchor="middle">Add</text><rect x="330" y="642" width="290" height="40" rx="12" fill="#FFFFFF" stroke="rgba(20,17,16,0.14)" stroke-width="1"/><text x="344" y="667" font-size="12" fill="#A39B92" font-weight="400" font-family="'Helvetica Neue', Arial, sans-serif">Ask anything about your skin…</text><rect x="630" y="642" width="40" height="40" rx="12" fill="#1F6F5C"/><text x="650" y="668" font-size="18" fill="#fff" font-weight="400" font-family="'Helvetica Neue', Arial, sans-serif" text-anchor="middle">↑</text><text x="500" y="696" font-size="10" fill="#A39B92" font-weight="400" font-family="'Helvetica Neue', Arial, sans-serif" text-anchor="middle">Not medical advice · Powered by DermaGuru</text><rect x="400" y="748" width="200" height="50" rx="25" fill="url(#gTeal)" filter="url(#fSoft)"/><path d="M428 766 C 429.26 771.74, 429.26 771.74, 435 773 C 429.26 774.26, 429.26 774.26, 428 780 C 426.74 774.26, 426.74 774.26, 421 773 C 426.74 771.74, 426.74 771.74, 428 766 Z" fill="#fff"/><text x="446" y="778" font-size="14.5" fill="#fff" font-weight="600" font-family="'Helvetica Neue', Arial, sans-serif">Skincare advisor</text></svg>