<svg xmlns="http://www.w3.org/2000/svg" width="2400" height="1808" viewBox="0 0 1200 904" font-family="'Helvetica Neue', Arial, sans-serif">
<defs>
  <linearGradient id="bgSand" x1="0" y1="0" x2="0" y2="1">
    <stop offset="0" stop-color="#FCFBF8"/><stop offset="0.55" stop-color="#FAF8F5"/><stop offset="1" stop-color="#F0ECE6"/>
  </linearGradient>
  <linearGradient id="gTeal" x1="0" y1="0" x2="1" y2="1">
    <stop offset="0" stop-color="#2A8067"/><stop offset="1" stop-color="#12473A"/>
  </linearGradient>
  <linearGradient id="gRose" x1="0" y1="0" x2="1" y2="1">
    <stop offset="0" stop-color="#C76E7E"/><stop offset="1" stop-color="#8A4250"/>
  </linearGradient>
  <linearGradient id="sw1" x1="0" y1="0" x2="1" y2="1"><stop offset="0" stop-color="#EAF3F0"/><stop offset="1" stop-color="#CFE4DD"/></linearGradient>
  <linearGradient id="sw2" x1="0" y1="0" x2="1" y2="1"><stop offset="0" stop-color="#F7EBEE"/><stop offset="1" stop-color="#E7CDD4"/></linearGradient>
  <linearGradient id="sw3" x1="0" y1="0" x2="1" y2="1"><stop offset="0" stop-color="#F6EEDD"/><stop offset="1" stop-color="#E6D6B8"/></linearGradient>
  <linearGradient id="sw4" x1="0" y1="0" x2="1" y2="1"><stop offset="0" stop-color="#EDF1EA"/><stop offset="1" stop-color="#D3DEC8"/></linearGradient>
  <filter id="fCard" x="-40%" y="-40%" width="180%" height="180%"><feDropShadow dx="0" dy="22" stdDeviation="34" flood-color="#2A211C" flood-opacity="0.16"/></filter>
  <filter id="fSoft" x="-50%" y="-50%" width="200%" height="200%"><feDropShadow dx="0" dy="10" stdDeviation="18" flood-color="#2A211C" flood-opacity="0.16"/></filter>
  <filter id="fBlur" x="-60%" y="-60%" width="220%" height="220%"><feGaussianBlur stdDeviation="46"/></filter>
</defs><rect width="1200" height="904" fill="url(#bgSand)"/><circle cx="980" cy="250" r="190" fill="#E7F1EE" opacity="0.7" filter="url(#fBlur)"/><circle cx="220" cy="760" r="170" fill="#F6E9EC" opacity="0.55" filter="url(#fBlur)"/><rect x="0" y="0" width="1200" height="74" fill="rgba(250,248,245,0.7)"/><path d="M70 30 l10 7 l-10 7 l-10 -7 z" fill="#1F6F5C"/><text x="92" y="42" font-size="17" fill="#1A1714" font-weight="700" font-family="'Helvetica Neue', Arial, sans-serif">DermaGuru</text><text x="840" y="42" font-size="13" fill="#6E6660" font-weight="400" font-family="'Helvetica Neue', Arial, sans-serif" text-anchor="middle">Product</text><text x="932" y="42" font-size="13" fill="#6E6660" font-weight="400" font-family="'Helvetica Neue', Arial, sans-serif" text-anchor="middle">Pricing</text><text x="1016" y="42" font-size="13" fill="#6E6660" font-weight="400" font-family="'Helvetica Neue', Arial, sans-serif" text-anchor="middle">Docs</text><rect x="1066" y="22" width="110" height="36" rx="18" fill="#1A1714"/><text x="1121" y="45" font-size="12.5" fill="#fff" font-weight="700" font-family="'Helvetica Neue', Arial, sans-serif" text-anchor="middle">Add to store</text><text x="70" y="168" font-size="12" fill="#1F6F5C" font-weight="700" font-family="'Helvetica Neue', Arial, sans-serif" letter-spacing="1.4">AI SKINCARE ADVISOR · SHOPIFY &amp; WOOCOMMERCE</text><text x="66" y="222" font-size="52" fill="#1A1714" font-weight="700" font-family="Georgia, 'Times New Roman', serif">Turn skin concerns</text><text x="66" y="278" font-size="52" fill="#1A1714" font-weight="700" font-family="Georgia, 'Times New Roman', serif">into confident</text><text x="66" y="334" font-size="52" font-weight="700" font-family="Georgia, 'Times New Roman', serif"><tspan fill="#1A1714">skincare </tspan><tspan fill="#1F6F5C" font-style="italic" dx="8">routines.</tspan></text><text x="70" y="380" font-size="16" fill="#3A332E" font-weight="400" font-family="'Helvetica Neue', Arial, sans-serif">An embeddable advisor that recommends only what the store actually</text><text x="70" y="404" font-size="16" fill="#3A332E" font-weight="400" font-family="'Helvetica Neue', Arial, sans-serif">sells — grounded, safe, and fully bilingual. Never diagnostic.</text><rect x="70" y="432" width="188" height="52" rx="26" fill="#1A1714"/><text x="164" y="464" font-size="14.5" fill="#fff" font-weight="700" font-family="'Helvetica Neue', Arial, sans-serif" text-anchor="middle">Add to your store</text><rect x="270" y="432" width="150" height="52" rx="26" fill="#FFFFFF" stroke="rgba(20,17,16,0.14)" stroke-width="1.4"/><path d="M300 452 C 301.08 456.92, 301.08 456.92, 306 458 C 301.08 459.08, 301.08 459.08, 300 464 C 298.92 459.08, 298.92 459.08, 294 458 C 298.92 456.92, 298.92 456.92, 300 452 Z" fill="#1F6F5C"/><text x="320" y="464" font-size="14.5" fill="#1A1714" font-weight="700" font-family="'Helvetica Neue', Arial, sans-serif" text-anchor="start">See it live</text><rect x="70" y="512" width="150" height="34" rx="17" fill="#E9F8EF"/><path d="M86 529 l4 4 l8 -9" fill="none" stroke="#0F7A55" stroke-width="2"/><text x="104" y="533" font-size="12" fill="#0B5E43" font-weight="600" font-family="'Helvetica Neue', Arial, sans-serif">Catalog-grounded</text><rect x="230" y="512" width="120" height="34" rx="17" fill="#E9F8EF"/><path d="M246 529 l4 4 l8 -9" fill="none" stroke="#0F7A55" stroke-width="2"/><text x="264" y="533" font-size="12" fill="#0B5E43" font-weight="600" font-family="'Helvetica Neue', Arial, sans-serif">Arabic &amp; RTL</text><rect x="360" y="512" width="162" height="34" rx="17" fill="#E9F8EF"/><path d="M376 529 l4 4 l8 -9" fill="none" stroke="#0F7A55" stroke-width="2"/><text x="394" y="533" font-size="12" fill="#0B5E43" font-weight="600" font-family="'Helvetica Neue', Arial, sans-serif">Not medical advice</text><rect x="532" y="512" width="110" height="34" rx="17" fill="#E9F8EF"/><path d="M548 529 l4 4 l8 -9" fill="none" stroke="#0F7A55" stroke-width="2"/><text x="566" y="533" font-size="12" fill="#0B5E43" font-weight="600" font-family="'Helvetica Neue', Arial, sans-serif">PDPL-ready</text><rect x="762" y="150" width="372" height="392" rx="22" fill="#FFFFFF" filter="url(#fCard)"/><rect x="782" y="170" width="36" height="36" rx="11" fill="url(#gTeal)"/><text x="800" y="194" font-size="16" fill="#fff" font-weight="700" font-family="'Helvetica Neue', Arial, sans-serif" text-anchor="middle">C</text><text x="826" y="186" font-size="14" fill="#1A1714" font-weight="700" font-family="'Helvetica Neue', Arial, sans-serif">Cicabelle</text><text x="826" y="201" font-size="10" fill="#6E6660" font-weight="400" font-family="'Helvetica Neue', Arial, sans-serif">Skincare advisor</text><rect x="782" y="220" width="332" height="24" rx="8" fill="#E7F1EE"/><text x="794" y="236" font-size="10" fill="#12473A" font-weight="600" font-family="'Helvetica Neue', Arial, sans-serif">Educational guidance — not medical advice.</text><rect x="782" y="254" width="230" height="40" rx="14" fill="#F1EEE9"/><text x="794" y="272" font-size="11" fill="#1A1714" font-weight="400" font-family="'Helvetica Neue', Arial, sans-serif">Dry skin and some dullness —</text><text x="794" y="287" font-size="11" fill="#1A1714" font-weight="400" font-family="'Helvetica Neue', Arial, sans-serif">what should I use?</text><rect x="782" y="308" width="332" height="92" rx="16" fill="#FFFFFF" stroke="rgba(20,17,16,0.09)" stroke-width="1"/><rect x="796" y="322" width="64" height="64" rx="12" fill="url(#sw1)"/><g>
    <rect x="822.5" y="330" width="11" height="8" rx="3" fill="#3F6F61"/>
    <rect x="815.5" y="337" width="25" height="43" rx="6.5" fill="#7FB4A4"/>
    <rect x="819.5" y="351" width="17" height="15" rx="3" fill="#ffffff" opacity="0.55"/>
  </g><text x="874" y="330" font-size="8.5" fill="#1F6F5C" font-weight="700" font-family="'Helvetica Neue', Arial, sans-serif" letter-spacing="1">STEP 1 · CLEANSE</text><text x="874" y="350" font-size="13" fill="#1A1714" font-weight="700" font-family="'Helvetica Neue', Arial, sans-serif">Gentle Gel Cleanser</text><text x="874" y="367" font-size="10.5" fill="#6E6660" font-weight="400" font-family="'Helvetica Neue', Arial, sans-serif">Fragrance-free, barrier-supporting.</text><text x="874" y="386" font-size="12.5" fill="#1F6F5C" font-weight="700" font-family="'Helvetica Neue', Arial, sans-serif">AED 79.00</text><rect x="1034" y="364" width="64" height="26" rx="13" fill="#1F6F5C"/><text x="1066" y="381" font-size="11" fill="#fff" font-weight="600" font-family="'Helvetica Neue', Arial, sans-serif" text-anchor="middle">Add</text><rect x="782" y="412" width="332" height="92" rx="16" fill="#FFFFFF" stroke="rgba(20,17,16,0.09)" stroke-width="1"/><rect x="796" y="426" width="64" height="64" rx="12" fill="url(#sw1)"/><g>
    <rect x="822.5" y="434" width="11" height="8" rx="3" fill="#3F6F61"/>
    <rect x="815.5" y="441" width="25" height="43" rx="6.5" fill="#7FB4A4"/>
    <rect x="819.5" y="455" width="17" height="15" rx="3" fill="#ffffff" opacity="0.55"/>
  </g><text x="874" y="434" font-size="8.5" fill="#1F6F5C" font-weight="700" font-family="'Helvetica Neue', Arial, sans-serif" letter-spacing="1">STEP 2 · HYDRATE</text><text x="874" y="454" font-size="13" fill="#1A1714" font-weight="700" font-family="'Helvetica Neue', Arial, sans-serif">Hydrating Serum</text><text x="874" y="471" font-size="10.5" fill="#6E6660" font-weight="400" font-family="'Helvetica Neue', Arial, sans-serif">Hyaluronic acid for plump skin.</text><text x="874" y="490" font-size="12.5" fill="#1F6F5C" font-weight="700" font-family="'Helvetica Neue', Arial, sans-serif">AED 110.00</text><rect x="1034" y="468" width="64" height="26" rx="13" fill="#1F6F5C"/><text x="1066" y="485" font-size="11" fill="#fff" font-weight="600" font-family="'Helvetica Neue', Arial, sans-serif" text-anchor="middle">Add</text><rect x="984" y="538" width="150" height="44" rx="22" fill="url(#gTeal)" filter="url(#fSoft)"/><path d="M1006 554 C 1007.08 558.92, 1007.08 558.92, 1012 560 C 1007.08 561.08, 1007.08 561.08, 1006 566 C 1004.92 561.08, 1004.92 561.08, 1000 560 C 1004.92 558.92, 1004.92 558.92, 1006 554 Z" fill="#fff"/><text x="1022" y="565" font-size="12.5" fill="#fff" font-weight="600" font-family="'Helvetica Neue', Arial, sans-serif">Skincare advisor</text><line x1="70" y1="584" x2="1130" y2="584" stroke="rgba(20,17,16,0.09)"/><text x="70" y="610" font-size="12" fill="#6E6660" font-weight="700" font-family="'Helvetica Neue', Arial, sans-serif" letter-spacing="1.4">DESIGN SYSTEM</text><text x="68" y="644" font-size="24" fill="#1A1714" font-weight="700" font-family="Georgia, 'Times New Roman', serif">One calm system — tokened, themeable, bilingual.</text><rect x="70" y="670" width="110" height="72" rx="14" fill="#1A1714" stroke="rgba(20,17,16,0.09)" stroke-width="1"/><text x="84" y="714" font-size="13" fill="#FFFFFF" font-weight="700" font-family="'Helvetica Neue', Arial, sans-serif">Ink</text><text x="84" y="730" font-size="9.5" fill="#FFFFFF" font-weight="400" font-family="'Helvetica Neue', Arial, sans-serif" opacity="0.8">#1A1714</text><rect x="192" y="670" width="110" height="72" rx="14" fill="#1F6F5C" stroke="rgba(20,17,16,0.09)" stroke-width="1"/><text x="206" y="714" font-size="13" fill="#FFFFFF" font-weight="700" font-family="'Helvetica Neue', Arial, sans-serif">Teal</text><text x="206" y="730" font-size="9.5" fill="#FFFFFF" font-weight="400" font-family="'Helvetica Neue', Arial, sans-serif" opacity="0.8">#1F6F5C</text><rect x="314" y="670" width="110" height="72" rx="14" fill="#B75D6E" stroke="rgba(20,17,16,0.09)" stroke-width="1"/><text x="328" y="714" font-size="13" fill="#FFFFFF" font-weight="700" font-family="'Helvetica Neue', Arial, sans-serif">Rose</text><text x="328" y="730" font-size="9.5" fill="#FFFFFF" font-weight="400" font-family="'Helvetica Neue', Arial, sans-serif" opacity="0.8">#B75D6E</text><rect x="436" y="670" width="110" height="72" rx="14" fill="#F1EEE9" stroke="rgba(20,17,16,0.09)" stroke-width="1"/><text x="450" y="714" font-size="13" fill="#1A1714" font-weight="700" font-family="'Helvetica Neue', Arial, sans-serif">Sand</text><text x="450" y="730" font-size="9.5" fill="#1A1714" font-weight="400" font-family="'Helvetica Neue', Arial, sans-serif" opacity="0.8">#F1EEE9</text><rect x="558" y="670" width="110" height="72" rx="14" fill="#9A6B2F" stroke="rgba(20,17,16,0.09)" stroke-width="1"/><text x="572" y="714" font-size="13" fill="#FFFFFF" font-weight="700" font-family="'Helvetica Neue', Arial, sans-serif">Gold</text><text x="572" y="730" font-size="9.5" fill="#FFFFFF" font-weight="400" font-family="'Helvetica Neue', Arial, sans-serif" opacity="0.8">#9A6B2F</text><rect x="680" y="670" width="110" height="72" rx="14" fill="#0F7A55" stroke="rgba(20,17,16,0.09)" stroke-width="1"/><text x="694" y="714" font-size="13" fill="#FFFFFF" font-weight="700" font-family="'Helvetica Neue', Arial, sans-serif">Safe</text><text x="694" y="730" font-size="9.5" fill="#FFFFFF" font-weight="400" font-family="'Helvetica Neue', Arial, sans-serif" opacity="0.8">#0F7A55</text><text x="70" y="778" font-size="10" fill="#A39B92" font-weight="700" font-family="'Helvetica Neue', Arial, sans-serif" letter-spacing="1.2">TYPE</text><text x="68" y="832" font-size="62" fill="#1A1714" font-weight="700" font-family="Georgia, 'Times New Roman', serif">Aa</text><text x="156" y="808" font-size="15" fill="#1A1714" font-weight="700" font-family="Georgia, 'Times New Roman', serif">Display — Serif</text><text x="156" y="828" font-size="12" fill="#6E6660" font-weight="400" font-family="'Helvetica Neue', Arial, sans-serif">Editorial, warm, trustworthy</text><text x="156" y="852" font-size="12.5" fill="#3A332E" font-weight="400" font-family="'Helvetica Neue', Arial, sans-serif">UI — Sans · 13/1.5 · the quick brown fox</text><text x="660" y="778" font-size="10" fill="#A39B92" font-weight="700" font-family="'Helvetica Neue', Arial, sans-serif" letter-spacing="1.2">COMPONENTS</text><rect x="660" y="794" width="120" height="40" rx="20" fill="#1A1714"/><text x="720" y="819" font-size="13" fill="#fff" font-weight="700" font-family="'Helvetica Neue', Arial, sans-serif" text-anchor="middle">Primary</text><rect x="792" y="794" width="92" height="40" rx="20" fill="#FFFFFF" stroke="rgba(20,17,16,0.14)" stroke-width="1.3"/><text x="838" y="819" font-size="13" fill="#1A1714" font-weight="700" font-family="'Helvetica Neue', Arial, sans-serif" text-anchor="middle">Ghost</text><rect x="896" y="800" width="84" height="28" rx="14" fill="#FFFFFF" stroke="#D6E7E1" stroke-width="1.3"/><text x="938" y="818" font-size="12" fill="#1F6F5C" font-weight="600" font-family="'Helvetica Neue', Arial, sans-serif" text-anchor="middle">Chip</text><rect x="992" y="802" width="84" height="24" rx="12" fill="#F6EDDC"/><text x="1034" y="818" font-size="8" fill="#9A6B2F" font-weight="700" font-family="'Helvetica Neue', Arial, sans-serif" text-anchor="middle" letter-spacing="0.6">SPONSORED</text><rect x="660" y="848" width="250" height="34" rx="17" fill="#FFF6EF" stroke="#F0D9C8" stroke-width="1"/><path d="M678 858 l7 2.6 v6 c0 4.6 -3.2 7.2 -7 9 c-3.8 -1.8 -7 -4.4 -7 -9 v-6 z" fill="none" stroke="#D2754B" stroke-width="1.6"/><text x="696" y="869" font-size="12" fill="#7A3F25" font-weight="600" font-family="'Helvetica Neue', Arial, sans-serif">Red-flag → see a professional</text><rect x="924" y="848" width="152" height="34" rx="17" fill="#E9F8EF"/><text x="1000" y="869" font-size="11.5" fill="#0B5E43" font-weight="600" font-family="'Helvetica Neue', Arial, sans-serif" text-anchor="middle">Catalog-grounded only</text></svg>