<svg xmlns="http://www.w3.org/2000/svg" width="2400" height="1520" viewBox="0 0 1200 760" font-family="'Helvetica Neue',Arial,sans-serif">
<defs>
<linearGradient id="gt" x1="0" y1="0" x2="1" y2="1"><stop offset="0" stop-color="#2A8067"/><stop offset="1" stop-color="#123F34"/></linearGradient>
<linearGradient id="champ" x1="0" y1="0" x2="1" y2="1"><stop offset="0" stop-color="#C9B79B"/><stop offset="1" stop-color="#8C7355"/></linearGradient>
<linearGradient id="sw" x1="0" y1="0" x2="1" y2="1"><stop offset="0" stop-color="#EAF3F0"/><stop offset="1" stop-color="#CFE4DD"/></linearGradient>
<filter id="sh" x="-40%" y="-40%" width="180%" height="180%"><feDropShadow dx="0" dy="24" stdDeviation="36" flood-color="#2A211C" flood-opacity="0.18"/></filter>
<filter id="blur" x="-60%" y="-60%" width="220%" height="220%"><feGaussianBlur stdDeviation="60"/></filter>
</defs>
<rect width="1200" height="760" fill="#FBF9F5"/><rect width="1200" height="760" fill="#FBF9F5"/><circle cx="1080" cy="150" r="240" fill="#E7F1EE" opacity="0.6" filter="url(#blur)"/><circle cx="120" cy="720" r="200" fill="#F4EBD9" opacity="0.5" filter="url(#blur)"/><rect x="70" y="34" width="34" height="34" rx="10" fill="url(#gt)"/><text x="88" y="57" font-size="16" fill="#fff" font-weight="700" font-family="Georgia,'Times New Roman',serif" text-anchor="middle">D</text><text x="116" y="50" font-size="17" fill="#17130F" font-weight="600" font-family="'Helvetica Neue',Arial,sans-serif">DermaGuru</text><text x="116" y="63" font-size="8" fill="#A89E92" font-weight="600" font-family="'Helvetica Neue',Arial,sans-serif" letter-spacing="1.5">AI SKINCARE ADVISOR</text><text x="720" y="55" font-size="12.5" fill="#3D362F" font-weight="400" font-family="'Helvetica Neue',Arial,sans-serif" text-anchor="middle">Live consultation</text><text x="854" y="55" font-size="12.5" fill="#3D362F" font-weight="400" font-family="'Helvetica Neue',Arial,sans-serif" text-anchor="middle">Pricing</text><text x="946" y="55" font-size="12.5" fill="#3D362F" font-weight="400" font-family="'Helvetica Neue',Arial,sans-serif" text-anchor="middle">About</text><rect x="1006" y="34" width="124" height="36" rx="18" fill="#17130F"/><text x="1068" y="57" font-size="12.5" fill="#fff" font-weight="600" font-family="'Helvetica Neue',Arial,sans-serif" text-anchor="middle">Add to store</text><line x1="70" y1="92" x2="1130" y2="92" stroke="rgba(23,19,15,0.12)"/><rect x="70" y="150" width="330" height="30" rx="15" fill="#FFFFFF" stroke="rgba(23,19,15,0.12)" stroke-width="1"/><circle cx="90" cy="165" r="4" fill="#1F6F5C"/><text x="104" y="169" font-size="10.5" fill="#3D362F" font-weight="600" font-family="'Helvetica Neue',Arial,sans-serif" letter-spacing="0.6">SKINCARE ADVISOR — NEVER MEDICAL ADVICE</text><text x="66" y="248" font-size="62" fill="#17130F" font-weight="600" font-family="Georgia,'Times New Roman',serif">Beauty advice that</text><text x="66" y="320" font-size="62" font-weight="600" font-family="Georgia,'Times New Roman',serif"><tspan fill="#17130F">actually</tspan><tspan fill="#1F6F5C" font-style="italic" dx="14">converts.</tspan></text><text x="70" y="372" font-size="16.5" fill="#3D362F" font-weight="400" font-family="'Helvetica Neue',Arial,sans-serif">An embeddable AI advisor that understands a shopper's skin — in</text><text x="70" y="398" font-size="16.5" fill="#3D362F" font-weight="400" font-family="'Helvetica Neue',Arial,sans-serif">English or Arabic — and recommends only what you actually sell.</text><rect x="70" y="432" width="196" height="52" rx="26" fill="#17130F"/><text x="168" y="464" font-size="14.5" fill="#fff" font-weight="600" font-family="'Helvetica Neue',Arial,sans-serif" text-anchor="middle">Add to your store</text><rect x="278" y="432" width="178" height="52" rx="26" fill="#FFFFFF" stroke="rgba(23,19,15,0.12)" stroke-width="1.4"/><text x="367" y="464" font-size="14.5" fill="#17130F" font-weight="600" font-family="'Helvetica Neue',Arial,sans-serif" text-anchor="middle">Try the live demo →</text><rect x="70" y="514" width="156" height="34" rx="17" fill="#E9F8EF"/><path d="M86 531 l4 4 l8 -9" fill="none" stroke="#0F7A55" stroke-width="2"/><text x="104" y="535" font-size="12" fill="#0B5E43" font-weight="600" font-family="'Helvetica Neue',Arial,sans-serif">Catalog-grounded</text><rect x="238" y="514" width="128" height="34" rx="17" fill="#E9F8EF"/><path d="M254 531 l4 4 l8 -9" fill="none" stroke="#0F7A55" stroke-width="2"/><text x="272" y="535" font-size="12" fill="#0B5E43" font-weight="600" font-family="'Helvetica Neue',Arial,sans-serif">Arabic &amp; RTL</text><rect x="378" y="514" width="168" height="34" rx="17" fill="#E9F8EF"/><path d="M394 531 l4 4 l8 -9" fill="none" stroke="#0F7A55" stroke-width="2"/><text x="412" y="535" font-size="12" fill="#0B5E43" font-weight="600" font-family="'Helvetica Neue',Arial,sans-serif">PDPL / GDPR-ready</text><rect x="706" y="140" width="380" height="470" rx="26" fill="url(#champ)" filter="url(#sh)"/><text x="734" y="192" font-size="13" fill="#fff" font-weight="600" font-family="'Helvetica Neue',Arial,sans-serif" letter-spacing="2">The Ritual</text><text x="732" y="232" font-size="30" fill="#fff" font-weight="600" font-family="Georgia,'Times New Roman',serif">Editorial</text><text x="732" y="264" font-size="30" fill="#fff" font-weight="600" font-family="Georgia,'Times New Roman',serif" font-style="italic">skincare, grounded.</text><rect x="662" y="390" width="300" height="210" rx="18" fill="#FFFFFF" filter="url(#sh)"/><rect x="678" y="406" width="34" height="34" rx="10" fill="url(#gt)"/><text x="695" y="429" font-size="15" fill="#fff" font-weight="700" font-family="Georgia,'Times New Roman',serif" text-anchor="middle">C</text><text x="720" y="420" font-size="13" fill="#17130F" font-weight="700" font-family="'Helvetica Neue',Arial,sans-serif">Cicabelle</text><circle cx="724" cy="432" r="3" fill="#0F7A55"/><text x="732" y="435" font-size="9.5" fill="#736A60" font-weight="400" font-family="'Helvetica Neue',Arial,sans-serif">Skincare advisor · online</text><rect x="678" y="452" width="268" height="22" rx="7" fill="#E7F1EE"/><text x="688" y="467" font-size="9.5" fill="#123F34" font-weight="600" font-family="'Helvetica Neue',Arial,sans-serif">Educational guidance — not medical advice.</text><rect x="812" y="486" width="134" height="30" rx="15" fill="#E7F1EE"/><text x="940" y="506" font-size="10.5" fill="#123F34" font-weight="400" font-family="'Helvetica Neue',Arial,sans-serif" text-anchor="end">Dry skin &amp; some dullness?</text><rect x="678" y="526" width="268" height="58" rx="12" fill="#FFFFFF" stroke="rgba(23,19,15,0.12)" stroke-width="1"/><rect x="688" y="536" width="38" height="38" rx="9" fill="url(#sw)"/><text x="736" y="548" font-size="7.5" fill="#9A7B4F" font-weight="700" font-family="'Helvetica Neue',Arial,sans-serif" letter-spacing="1">STEP 1 · CLEANSE</text><text x="736" y="563" font-size="12" fill="#17130F" font-weight="600" font-family="'Helvetica Neue',Arial,sans-serif">Gentle Gel Cleanser</text><text x="736" y="578" font-size="11" fill="#1F6F5C" font-weight="700" font-family="'Helvetica Neue',Arial,sans-serif">AED 79.00</text><rect x="890" y="540" width="56" height="24" rx="12" fill="#1F6F5C"/><text x="918" y="556" font-size="10.5" fill="#fff" font-weight="600" font-family="'Helvetica Neue',Arial,sans-serif" text-anchor="middle">Add</text></svg>