<svg xmlns="http://www.w3.org/2000/svg" width="2920" height="1880" viewBox="0 0 1460 940" font-family="'Helvetica Neue',Arial,sans-serif"><defs>
<linearGradient id="gTeal" x1="0" y1="0" x2="1" y2="1"><stop offset="0" stop-color="#2A8067"/><stop offset="1" stop-color="#103E33"/></linearGradient>
<linearGradient id="gRose" x1="0" y1="0" x2="1" y2="1"><stop offset="0" stop-color="#C16E7E"/><stop offset="1" stop-color="#83404E"/></linearGradient>
<linearGradient id="gBrass" x1="0" y1="0" x2="1" y2="1"><stop offset="0" stop-color="#C2A36B"/><stop offset="1" stop-color="#9A7B4F"/></linearGradient>
<linearGradient id="duo" x1="0" y1="0" x2="1" y2="1"><stop offset="0" stop-color="#D9C3A1"/><stop offset=".55" stop-color="#A98E63"/><stop offset="1" stop-color="#103E33"/></linearGradient>
<linearGradient id="sw1" x1="0" y1="0" x2="1" y2="1"><stop offset="0" stop-color="#EAF3F0"/><stop offset="1" stop-color="#CDE2DB"/></linearGradient>
<linearGradient id="sw2" x1="0" y1="0" x2="1" y2="1"><stop offset="0" stop-color="#F7EAEE"/><stop offset="1" stop-color="#E6CCD3"/></linearGradient>
<linearGradient id="sw3" x1="0" y1="0" x2="1" y2="1"><stop offset="0" stop-color="#F4ECDB"/><stop offset="1" stop-color="#E3D2B2"/></linearGradient>
<linearGradient id="ink" x1="0" y1="0" x2="0" y2="1"><stop offset="0" stop-color="#241F18"/><stop offset="1" stop-color="#14110D"/></linearGradient>
<filter id="sh" x="-40%" y="-40%" width="180%" height="180%"><feDropShadow dx="0" dy="22" stdDeviation="34" flood-color="#2A211C" flood-opacity="0.16"/></filter>
<filter id="sh2" x="-50%" y="-50%" width="200%" height="200%"><feDropShadow dx="0" dy="10" stdDeviation="18" flood-color="#2A211C" flood-opacity="0.14"/></filter>
<filter id="blur"><feGaussianBlur stdDeviation="55"/></filter>
<filter id="grain"><feTurbulence type="fractalNoise" baseFrequency="0.9" numOctaves="2" stitchTiles="stitch"/><feColorMatrix type="matrix" values="0 0 0 0 0 0 0 0 0 0 0 0 0 0 0 0 0 0 0.05 0"/></filter>
<marker id="arr" markerWidth="11" markerHeight="11" refX="7.5" refY="3" orient="auto"><path d="M0,0 L8,3 L0,6 Z" fill="#A89E92"/></marker>
<marker id="arrT" markerWidth="11" markerHeight="11" refX="7.5" refY="3" orient="auto"><path d="M0,0 L8,3 L0,6 Z" fill="#1F6F5C"/></marker>
<marker id="arrW" markerWidth="11" markerHeight="11" refX="7.5" refY="3" orient="auto"><path d="M0,0 L8,3 L0,6 Z" fill="#CC6B3D"/></marker>
</defs><rect width="1460" height="940" fill="#FBF9F5"/><rect x="0" y="0" width="250" height="940" fill="url(#ink)"/><rect x="22" y="26" width="34" height="34" rx="10" fill="url(#gBrass)"/><text x="39" y="49" font-size="15" fill="#fff" font-weight="700" font-family="Georgia,'Times New Roman',serif" text-anchor="middle">D</text><text x="66" y="42" font-size="15" fill="#fff" font-weight="600" font-family="'Helvetica Neue',Arial,sans-serif">DermaGuru</text><text x="66" y="56" font-size="8" fill="rgba(255,255,255,.5)" font-weight="700" font-family="'Helvetica Neue',Arial,sans-serif" letter-spacing="2">PLATFORM</text><text x="24" y="104" font-size="8.5" fill="rgba(255,255,255,.36)" font-weight="700" font-family="'Helvetica Neue',Arial,sans-serif" letter-spacing="2">CONTROL ROOM</text><rect x="14" y="118" width="222" height="34" rx="10" fill="rgba(255,255,255,.10)"/><rect x="14" y="118" width="3" height="34" rx="2" fill="#C2A36B"/><circle cx="32" cy="135" r="4" fill="#C2A36B"/><text x="48" y="139" font-size="12.5" fill="#fff" font-weight="600" font-family="'Helvetica Neue',Arial,sans-serif">Overview</text><circle cx="32" cy="175" r="4" fill="rgba(255,255,255,.4)"/><text x="48" y="179" font-size="12.5" fill="rgba(255,255,255,.72)" font-weight="500" font-family="'Helvetica Neue',Arial,sans-serif">Tenants</text><circle cx="32" cy="215" r="4" fill="rgba(255,255,255,.4)"/><text x="48" y="219" font-size="12.5" fill="rgba(255,255,255,.72)" font-weight="500" font-family="'Helvetica Neue',Arial,sans-serif">Sponsored marketplace</text><circle cx="32" cy="255" r="4" fill="rgba(255,255,255,.4)"/><text x="48" y="259" font-size="12.5" fill="rgba(255,255,255,.72)" font-weight="500" font-family="'Helvetica Neue',Arial,sans-serif">Safety review</text><circle cx="32" cy="295" r="4" fill="rgba(255,255,255,.4)"/><text x="48" y="299" font-size="12.5" fill="rgba(255,255,255,.72)" font-weight="500" font-family="'Helvetica Neue',Arial,sans-serif">Catalog ingestion</text><text x="24" y="334" font-size="8.5" fill="rgba(255,255,255,.36)" font-weight="700" font-family="'Helvetica Neue',Arial,sans-serif" letter-spacing="2">INSIGHT</text><circle cx="32" cy="365" r="4" fill="rgba(255,255,255,.4)"/><text x="48" y="369" font-size="12.5" fill="rgba(255,255,255,.72)" font-weight="500" font-family="'Helvetica Neue',Arial,sans-serif">Analytics</text><circle cx="32" cy="405" r="4" fill="rgba(255,255,255,.4)"/><text x="48" y="409" font-size="12.5" fill="rgba(255,255,255,.72)" font-weight="500" font-family="'Helvetica Neue',Arial,sans-serif">Billing &amp; payouts</text><text x="24" y="444" font-size="8.5" fill="rgba(255,255,255,.36)" font-weight="700" font-family="'Helvetica Neue',Arial,sans-serif" letter-spacing="2">SYSTEM</text><circle cx="32" cy="475" r="4" fill="rgba(255,255,255,.4)"/><text x="48" y="479" font-size="12.5" fill="rgba(255,255,255,.72)" font-weight="500" font-family="'Helvetica Neue',Arial,sans-serif">Settings</text><circle cx="32" cy="515" r="4" fill="rgba(255,255,255,.4)"/><text x="48" y="519" font-size="12.5" fill="rgba(255,255,255,.72)" font-weight="500" font-family="'Helvetica Neue',Arial,sans-serif">Audit log</text><rect x="14" y="876" width="222" height="44" rx="12" fill="rgba(255,255,255,.06)"/><circle cx="40" cy="898" r="13" fill="url(#gBrass)"/><text x="40" y="902" font-size="12" fill="#fff" font-weight="700" font-family="'Helvetica Neue',Arial,sans-serif" text-anchor="middle">S</text><text x="62" y="894" font-size="11.5" fill="#fff" font-weight="600" font-family="'Helvetica Neue',Arial,sans-serif">Super admin</text><text x="62" y="909" font-size="9" fill="rgba(255,255,255,.5)" font-weight="400" font-family="'Helvetica Neue',Arial,sans-serif">platform owner</text><rect x="250" y="0" width="1210" height="76" fill="#F3EEE6"/><line x1="250" y1="76" x2="1460" y2="76" stroke="rgba(20,16,11,.10)" stroke-width="1"/><text x="284" y="48" font-size="24" fill="#14110D" font-weight="600" font-family="Georgia,'Times New Roman',serif">Control room</text><rect x="1160" y="24" width="150" height="40" rx="20" fill="#FFFFFF" stroke="rgba(20,16,11,.10)" stroke-width="1"/><circle cx="1180" cy="44" r="4" fill="#6E665C"/><text x="1194" y="49" font-size="11.5" fill="#6E665C" font-weight="400" font-family="'Helvetica Neue',Arial,sans-serif">Search platform…</text><rect x="1322" y="24" width="86" height="40" rx="20" fill="#E9F8EF"/><circle cx="1340" cy="44" r="4" fill="#0F7A55"/><text x="1352" y="48" font-size="11" fill="#0B5E43" font-weight="600" font-family="'Helvetica Neue',Arial,sans-serif">Healthy</text><rect x="284" y="108" width="273.5" height="96" rx="16" fill="#FFFFFF" stroke="rgba(20,16,11,.10)" stroke-width="1"/><text x="302" y="132" font-size="8.5" fill="#6E665C" font-weight="700" font-family="'Helvetica Neue',Arial,sans-serif" letter-spacing="0.8">ACTIVE TENANTS</text><text x="302" y="170" font-size="27" fill="#14110D" font-weight="400" font-family="Georgia,'Times New Roman',serif">38</text><text x="302" y="190" font-size="10" fill="#0F7A55" font-weight="600" font-family="'Helvetica Neue',Arial,sans-serif">▲ 4 this week</text><rect x="573.5" y="108" width="273.5" height="96" rx="16" fill="#FFFFFF" stroke="rgba(20,16,11,.10)" stroke-width="1"/><text x="591.5" y="132" font-size="8.5" fill="#6E665C" font-weight="700" font-family="'Helvetica Neue',Arial,sans-serif" letter-spacing="0.8">PUBLIC CONSULTATIONS · TODAY</text><text x="591.5" y="170" font-size="27" fill="#14110D" font-weight="400" font-family="Georgia,'Times New Roman',serif">12,840</text><text x="591.5" y="190" font-size="10" fill="#0F7A55" font-weight="600" font-family="'Helvetica Neue',Arial,sans-serif">▲ 9%</text><rect x="863" y="108" width="273.5" height="96" rx="16" fill="#FFFFFF" stroke="rgba(20,16,11,.10)" stroke-width="1"/><text x="881" y="132" font-size="8.5" fill="#6E665C" font-weight="700" font-family="'Helvetica Neue',Arial,sans-serif" letter-spacing="0.8">SPONSORED REVENUE · MTD</text><text x="881" y="170" font-size="27" fill="#14110D" font-weight="400" font-family="Georgia,'Times New Roman',serif">AED 41,250</text><text x="881" y="190" font-size="10" fill="#0F7A55" font-weight="600" font-family="'Helvetica Neue',Arial,sans-serif">▲ 22%</text><rect x="1152.5" y="108" width="273.5" height="96" rx="16" fill="#FFFFFF" stroke="rgba(20,16,11,.10)" stroke-width="1"/><text x="1170.5" y="132" font-size="8.5" fill="#6E665C" font-weight="700" font-family="'Helvetica Neue',Arial,sans-serif" letter-spacing="0.8">SAFETY FLAGS · 24H</text><text x="1170.5" y="170" font-size="27" fill="#14110D" font-weight="400" font-family="Georgia,'Times New Roman',serif">17</text><text x="1170.5" y="190" font-size="10" fill="#9A7B4F" font-weight="600" font-family="'Helvetica Neue',Arial,sans-serif">reviewed &amp; referred</text><rect x="284" y="232" width="677.6" height="322" rx="16" fill="#FFFFFF" stroke="rgba(20,16,11,.10)" stroke-width="1"/><text x="306" y="262" font-size="14" fill="#14110D" font-weight="700" font-family="'Helvetica Neue',Arial,sans-serif">Tenants</text><rect x="833.6" y="246" width="108" height="30" rx="15" fill="#FFFFFF" stroke="rgba(20,16,11,.16)" stroke-width="1.2"/><text x="887.6" y="265" font-size="10.5" fill="#14110D" font-weight="600" font-family="'Helvetica Neue',Arial,sans-serif" text-anchor="middle">Invite tenant</text><text x="306" y="290" font-size="8.5" fill="#6E665C" font-weight="700" font-family="'Helvetica Neue',Arial,sans-serif" letter-spacing="0.8">TENANT</text><text x="555.04" y="290" font-size="8.5" fill="#6E665C" font-weight="700" font-family="'Helvetica Neue',Arial,sans-serif" letter-spacing="0.8">PLAN</text><text x="663.4560000000001" y="290" font-size="8.5" fill="#6E665C" font-weight="700" font-family="'Helvetica Neue',Arial,sans-serif" letter-spacing="0.8">STATUS</text><text x="771.8720000000001" y="290" font-size="8.5" fill="#6E665C" font-weight="700" font-family="'Helvetica Neue',Arial,sans-serif" letter-spacing="0.8">MRR</text><text x="939.6" y="290" font-size="8.5" fill="#6E665C" font-weight="700" font-family="'Helvetica Neue',Arial,sans-serif" text-anchor="end" letter-spacing="0.8">30D</text><line x1="302" y1="300" x2="943.6" y2="300" stroke="rgba(20,16,11,.10)" stroke-width="1"/><text x="306" y="324" font-size="11.5" fill="#14110D" font-weight="600" font-family="'Helvetica Neue',Arial,sans-serif">Cicabelle</text><text x="555.04" y="324" font-size="11" fill="#3A332C" font-weight="400" font-family="'Helvetica Neue',Arial,sans-serif">Growth</text><rect x="663.4560000000001" y="311" width="66" height="19" rx="9.5" fill="#E9F8EF"/><text x="696.4560000000001" y="324" font-size="9.5" fill="#0B5E43" font-weight="700" font-family="'Helvetica Neue',Arial,sans-serif" text-anchor="middle">Live</text><text x="771.8720000000001" y="324" font-size="11" fill="#3A332C" font-weight="400" font-family="'Helvetica Neue',Arial,sans-serif">AED 499</text><text x="939.6" y="324" font-size="11" fill="#3A332C" font-weight="400" font-family="'Helvetica Neue',Arial,sans-serif" text-anchor="end">8,420</text><line x1="302" y1="338" x2="943.6" y2="338" stroke="rgba(20,16,11,.10)" stroke-width="1"/><text x="306" y="368" font-size="11.5" fill="#14110D" font-weight="600" font-family="'Helvetica Neue',Arial,sans-serif">Lumière</text><text x="555.04" y="368" font-size="11" fill="#3A332C" font-weight="400" font-family="'Helvetica Neue',Arial,sans-serif">Pro</text><rect x="663.4560000000001" y="355" width="66" height="19" rx="9.5" fill="#E9F8EF"/><text x="696.4560000000001" y="368" font-size="9.5" fill="#0B5E43" font-weight="700" font-family="'Helvetica Neue',Arial,sans-serif" text-anchor="middle">Live</text><text x="771.8720000000001" y="368" font-size="11" fill="#3A332C" font-weight="400" font-family="'Helvetica Neue',Arial,sans-serif">AED 1,299</text><text x="939.6" y="368" font-size="11" fill="#3A332C" font-weight="400" font-family="'Helvetica Neue',Arial,sans-serif" text-anchor="end">21,100</text><line x1="302" y1="382" x2="943.6" y2="382" stroke="rgba(20,16,11,.10)" stroke-width="1"/><text x="306" y="412" font-size="11.5" fill="#14110D" font-weight="600" font-family="'Helvetica Neue',Arial,sans-serif">Sahar &amp; Co</text><text x="555.04" y="412" font-size="11" fill="#3A332C" font-weight="400" font-family="'Helvetica Neue',Arial,sans-serif">Starter</text><rect x="663.4560000000001" y="399" width="66" height="19" rx="9.5" fill="#E9F8EF"/><text x="696.4560000000001" y="412" font-size="9.5" fill="#0B5E43" font-weight="700" font-family="'Helvetica Neue',Arial,sans-serif" text-anchor="middle">Live</text><text x="771.8720000000001" y="412" font-size="11" fill="#3A332C" font-weight="400" font-family="'Helvetica Neue',Arial,sans-serif">AED 199</text><text x="939.6" y="412" font-size="11" fill="#3A332C" font-weight="400" font-family="'Helvetica Neue',Arial,sans-serif" text-anchor="end">2,980</text><line x1="302" y1="426" x2="943.6" y2="426" stroke="rgba(20,16,11,.10)" stroke-width="1"/><text x="306" y="456" font-size="11.5" fill="#14110D" font-weight="600" font-family="'Helvetica Neue',Arial,sans-serif">Botanica</text><text x="555.04" y="456" font-size="11" fill="#3A332C" font-weight="400" font-family="'Helvetica Neue',Arial,sans-serif">Growth</text><rect x="663.4560000000001" y="443" width="66" height="19" rx="9.5" fill="#F4EBD8"/><text x="696.4560000000001" y="456" font-size="9.5" fill="#9A6B2F" font-weight="700" font-family="'Helvetica Neue',Arial,sans-serif" text-anchor="middle">Review</text><text x="771.8720000000001" y="456" font-size="11" fill="#3A332C" font-weight="400" font-family="'Helvetica Neue',Arial,sans-serif">AED 499</text><text x="939.6" y="456" font-size="11" fill="#3A332C" font-weight="400" font-family="'Helvetica Neue',Arial,sans-serif" text-anchor="end">—</text><line x1="302" y1="470" x2="943.6" y2="470" stroke="rgba(20,16,11,.10)" stroke-width="1"/><text x="306" y="500" font-size="11.5" fill="#14110D" font-weight="600" font-family="'Helvetica Neue',Arial,sans-serif">Maison Dérma</text><text x="555.04" y="500" font-size="11" fill="#3A332C" font-weight="400" font-family="'Helvetica Neue',Arial,sans-serif">Starter</text><rect x="663.4560000000001" y="487" width="66" height="19" rx="9.5" fill="#EFEAE2"/><text x="696.4560000000001" y="500" font-size="9.5" fill="#6E665C" font-weight="700" font-family="'Helvetica Neue',Arial,sans-serif" text-anchor="middle">Paused</text><text x="771.8720000000001" y="500" font-size="11" fill="#3A332C" font-weight="400" font-family="'Helvetica Neue',Arial,sans-serif">AED 0</text><text x="939.6" y="500" font-size="11" fill="#3A332C" font-weight="400" font-family="'Helvetica Neue',Arial,sans-serif" text-anchor="end">410</text><line x1="302" y1="514" x2="943.6" y2="514" stroke="rgba(20,16,11,.10)" stroke-width="1"/><rect x="983.6" y="232" width="442.4" height="322" rx="16" fill="#FFFFFF" stroke="rgba(20,16,11,.10)" stroke-width="1"/><text x="1003.6" y="262" font-size="14" fill="#14110D" font-weight="700" font-family="'Helvetica Neue',Arial,sans-serif">Safety review queue</text><rect x="1348" y="246" width="58" height="22" rx="11" fill="#FFF6EF"/><text x="1377" y="262" font-size="9.5" fill="#7A3F25" font-weight="700" font-family="'Helvetica Neue',Arial,sans-serif" text-anchor="middle">4 open</text><rect x="1003.6" y="284" width="402.4" height="74" rx="12" fill="#FFF6EF" stroke="#F0D9C8" stroke-width="1"/><rect x="1003.6" y="284" width="3" height="74" rx="2" fill="#CC6B3D"/><rect x="1017.6" y="296" width="90" height="18" rx="9" fill="#fff"/><text x="1062.6" y="309" font-size="8.5" fill="#7A3F25" font-weight="700" font-family="'Helvetica Neue',Arial,sans-serif" text-anchor="middle">URGENT</text><text x="1392" y="310" font-size="9" fill="#6E665C" font-weight="400" font-family="'Helvetica Neue',Arial,sans-serif" text-anchor="end">EN</text><text x="1017.6" y="330" font-size="11" fill="#3A332C" font-weight="400" font-family="'Helvetica Neue',Arial,sans-serif" font-style="italic">“burning + blurred vision”</text><text x="1017.6" y="347" font-size="9.5" fill="#0F7A55" font-weight="600" font-family="'Helvetica Neue',Arial,sans-serif">✓ Blocked · referred</text><rect x="1003.6" y="368" width="402.4" height="74" rx="12" fill="#FFF6EF" stroke="#F0D9C8" stroke-width="1"/><rect x="1003.6" y="368" width="3" height="74" rx="2" fill="#CC6B3D"/><rect x="1017.6" y="380" width="90" height="18" rx="9" fill="#fff"/><text x="1062.6" y="393" font-size="8.5" fill="#7A3F25" font-weight="700" font-family="'Helvetica Neue',Arial,sans-serif" text-anchor="middle">REFER_CLINIC</text><text x="1392" y="394" font-size="9" fill="#6E665C" font-weight="400" font-family="'Helvetica Neue',Arial,sans-serif" text-anchor="end">AR</text><text x="1017.6" y="414" font-size="11" fill="#3A332C" font-weight="400" font-family="'Helvetica Neue',Arial,sans-serif" font-style="italic">“ملتهبة ومؤلمة منذ أيام”</text><text x="1017.6" y="431" font-size="9.5" fill="#0F7A55" font-weight="600" font-family="'Helvetica Neue',Arial,sans-serif">✓ Blocked · referred</text><rect x="1003.6" y="452" width="402.4" height="74" rx="12" fill="#FFF6EF" stroke="#F0D9C8" stroke-width="1"/><rect x="1003.6" y="452" width="3" height="74" rx="2" fill="#CC6B3D"/><rect x="1017.6" y="464" width="90" height="18" rx="9" fill="#fff"/><text x="1062.6" y="477" font-size="8.5" fill="#7A3F25" font-weight="700" font-family="'Helvetica Neue',Arial,sans-serif" text-anchor="middle">REFER_CLINIC</text><text x="1392" y="478" font-size="9" fill="#6E665C" font-weight="400" font-family="'Helvetica Neue',Arial,sans-serif" text-anchor="end">EN</text><text x="1017.6" y="498" font-size="11" fill="#3A332C" font-weight="400" font-family="'Helvetica Neue',Arial,sans-serif" font-style="italic">“spreading rash + fever”</text><text x="1017.6" y="515" font-size="9.5" fill="#0F7A55" font-weight="600" font-family="'Helvetica Neue',Arial,sans-serif">✓ Blocked · referred</text><rect x="284" y="576" width="563" height="300" rx="16" fill="#FFFFFF" stroke="rgba(20,16,11,.10)" stroke-width="1"/><text x="304" y="606" font-size="14" fill="#14110D" font-weight="700" font-family="'Helvetica Neue',Arial,sans-serif">Sponsored marketplace · review</text><text x="304" y="626" font-size="10" fill="#6E665C" font-weight="400" font-family="'Helvetica Neue',Arial,sans-serif">Paid placements awaiting approval — disclosed, safety-gated.</text><rect x="304" y="650" width="523" height="58" rx="12" fill="#FBF9F5" stroke="rgba(20,16,11,.10)" stroke-width="1"/><rect x="316" y="662" width="34" height="34" rx="9" fill="url(#sw3)"/><text x="362" y="674" font-size="11.5" fill="#14110D" font-weight="600" font-family="'Helvetica Neue',Arial,sans-serif">Vitamin C Glow Serum</text><text x="362" y="691" font-size="10" fill="#6E665C" font-weight="400" font-family="'Helvetica Neue',Arial,sans-serif">Lumière · AED 1.10 / click</text><rect x="697" y="667" width="58" height="24" rx="12" fill="#1F6F5C"/><text x="726" y="683" font-size="9.5" fill="#fff" font-weight="600" font-family="'Helvetica Neue',Arial,sans-serif" text-anchor="middle">Approve</text><rect x="761" y="667" width="52" height="24" rx="12" fill="#fff" stroke="rgba(20,16,11,.16)" stroke-width="1"/><text x="787" y="683" font-size="9.5" fill="#3A332C" font-weight="600" font-family="'Helvetica Neue',Arial,sans-serif" text-anchor="middle">Reject</text><rect x="304" y="718" width="523" height="58" rx="12" fill="#FBF9F5" stroke="rgba(20,16,11,.10)" stroke-width="1"/><rect x="316" y="730" width="34" height="34" rx="9" fill="url(#sw3)"/><text x="362" y="742" font-size="11.5" fill="#14110D" font-weight="600" font-family="'Helvetica Neue',Arial,sans-serif">Rosehip Night Oil</text><text x="362" y="759" font-size="10" fill="#6E665C" font-weight="400" font-family="'Helvetica Neue',Arial,sans-serif">Botanica · AED 38 / 1k views</text><rect x="697" y="735" width="58" height="24" rx="12" fill="#1F6F5C"/><text x="726" y="751" font-size="9.5" fill="#fff" font-weight="600" font-family="'Helvetica Neue',Arial,sans-serif" text-anchor="middle">Approve</text><rect x="761" y="735" width="52" height="24" rx="12" fill="#fff" stroke="rgba(20,16,11,.16)" stroke-width="1"/><text x="787" y="751" font-size="9.5" fill="#3A332C" font-weight="600" font-family="'Helvetica Neue',Arial,sans-serif" text-anchor="middle">Reject</text><rect x="304" y="786" width="523" height="58" rx="12" fill="#FBF9F5" stroke="rgba(20,16,11,.10)" stroke-width="1"/><rect x="316" y="798" width="34" height="34" rx="9" fill="url(#sw3)"/><text x="362" y="810" font-size="11.5" fill="#14110D" font-weight="600" font-family="'Helvetica Neue',Arial,sans-serif">Mineral SPF 50</text><text x="362" y="827" font-size="10" fill="#6E665C" font-weight="400" font-family="'Helvetica Neue',Arial,sans-serif">Sahar &amp; Co · AED 0.95 / click</text><rect x="697" y="803" width="58" height="24" rx="12" fill="#1F6F5C"/><text x="726" y="819" font-size="9.5" fill="#fff" font-weight="600" font-family="'Helvetica Neue',Arial,sans-serif" text-anchor="middle">Approve</text><rect x="761" y="803" width="52" height="24" rx="12" fill="#fff" stroke="rgba(20,16,11,.16)" stroke-width="1"/><text x="787" y="819" font-size="9.5" fill="#3A332C" font-weight="600" font-family="'Helvetica Neue',Arial,sans-serif" text-anchor="middle">Reject</text><rect x="863" y="576" width="563" height="300" rx="16" fill="#FFFFFF" stroke="rgba(20,16,11,.10)" stroke-width="1"/><text x="883" y="606" font-size="14" fill="#14110D" font-weight="700" font-family="'Helvetica Neue',Arial,sans-serif">Public consultations · 14 days</text><rect x="891" y="767.2727272727273" width="28.214285714285715" height="68.72727272727273" rx="5" fill="url(#gTeal)"/><rect x="927.2142857142857" y="757.4545454545455" width="28.214285714285715" height="78.54545454545455" rx="5" fill="url(#gTeal)"/><rect x="963.4285714285714" y="746" width="28.214285714285715" height="90" rx="5" fill="url(#gTeal)"/><rect x="999.6428571428571" y="754.1818181818182" width="28.214285714285715" height="81.81818181818181" rx="5" fill="url(#gTeal)"/><rect x="1035.857142857143" y="734.5454545454545" width="28.214285714285715" height="101.45454545454545" rx="5" fill="url(#gTeal)"/><rect x="1072.0714285714287" y="721.4545454545455" width="28.214285714285715" height="114.54545454545455" rx="5" fill="url(#gTeal)"/><rect x="1108.2857142857142" y="728" width="28.214285714285715" height="108" rx="5" fill="url(#gTeal)"/><rect x="1144.5" y="714.9090909090909" width="28.214285714285715" height="121.0909090909091" rx="5" fill="url(#gTeal)"/><rect x="1180.7142857142858" y="705.0909090909091" width="28.214285714285715" height="130.9090909090909" rx="5" fill="url(#gTeal)"/><rect x="1216.9285714285716" y="711.6363636363636" width="28.214285714285715" height="124.36363636363636" rx="5" fill="url(#gTeal)"/><rect x="1253.142857142857" y="692" width="28.214285714285715" height="144" rx="5" fill="url(#gTeal)"/><rect x="1289.357142857143" y="680.5454545454545" width="28.214285714285715" height="155.45454545454547" rx="5" fill="url(#gTeal)"/><rect x="1325.5714285714284" y="685.4545454545455" width="28.214285714285715" height="150.54545454545453" rx="5" fill="url(#gTeal)"/><rect x="1361.7857142857142" y="665.8181818181818" width="28.214285714285715" height="170.1818181818182" rx="5" fill="url(#gTeal)"/><line x1="883" y1="837" x2="1406" y2="837" stroke="rgba(20,16,11,.10)" stroke-width="1"/><rect x="0" y="0" width="1460" height="940" fill="none" filter="url(#grain)"/></svg>