<svg xmlns="http://www.w3.org/2000/svg" width="2920" height="1720" viewBox="0 0 1460 860" font-family="'Helvetica Neue',Arial,sans-serif"><defs>
<linearGradient id="gTeal" x1="0" y1="0" x2="1" y2="1"><stop offset="0" stop-color="#2A8067"/><stop offset="1" stop-color="#103E33"/></linearGradient>
<linearGradient id="gRose" x1="0" y1="0" x2="1" y2="1"><stop offset="0" stop-color="#C16E7E"/><stop offset="1" stop-color="#83404E"/></linearGradient>
<linearGradient id="gBrass" x1="0" y1="0" x2="1" y2="1"><stop offset="0" stop-color="#C2A36B"/><stop offset="1" stop-color="#9A7B4F"/></linearGradient>
<linearGradient id="duo" x1="0" y1="0" x2="1" y2="1"><stop offset="0" stop-color="#D9C3A1"/><stop offset=".55" stop-color="#A98E63"/><stop offset="1" stop-color="#103E33"/></linearGradient>
<linearGradient id="sw1" x1="0" y1="0" x2="1" y2="1"><stop offset="0" stop-color="#EAF3F0"/><stop offset="1" stop-color="#CDE2DB"/></linearGradient>
<linearGradient id="sw2" x1="0" y1="0" x2="1" y2="1"><stop offset="0" stop-color="#F7EAEE"/><stop offset="1" stop-color="#E6CCD3"/></linearGradient>
<linearGradient id="sw3" x1="0" y1="0" x2="1" y2="1"><stop offset="0" stop-color="#F4ECDB"/><stop offset="1" stop-color="#E3D2B2"/></linearGradient>
<linearGradient id="ink" x1="0" y1="0" x2="0" y2="1"><stop offset="0" stop-color="#241F18"/><stop offset="1" stop-color="#14110D"/></linearGradient>
<filter id="sh" x="-40%" y="-40%" width="180%" height="180%"><feDropShadow dx="0" dy="22" stdDeviation="34" flood-color="#2A211C" flood-opacity="0.16"/></filter>
<filter id="sh2" x="-50%" y="-50%" width="200%" height="200%"><feDropShadow dx="0" dy="10" stdDeviation="18" flood-color="#2A211C" flood-opacity="0.14"/></filter>
<filter id="blur"><feGaussianBlur stdDeviation="55"/></filter>
<filter id="grain"><feTurbulence type="fractalNoise" baseFrequency="0.9" numOctaves="2" stitchTiles="stitch"/><feColorMatrix type="matrix" values="0 0 0 0 0 0 0 0 0 0 0 0 0 0 0 0 0 0 0.05 0"/></filter>
<marker id="arr" markerWidth="11" markerHeight="11" refX="7.5" refY="3" orient="auto"><path d="M0,0 L8,3 L0,6 Z" fill="#A89E92"/></marker>
<marker id="arrT" markerWidth="11" markerHeight="11" refX="7.5" refY="3" orient="auto"><path d="M0,0 L8,3 L0,6 Z" fill="#1F6F5C"/></marker>
<marker id="arrW" markerWidth="11" markerHeight="11" refX="7.5" refY="3" orient="auto"><path d="M0,0 L8,3 L0,6 Z" fill="#CC6B3D"/></marker>
</defs><rect width="1460" height="860" fill="#FBF9F5"/><circle cx="200" cy="180" r="180" fill="#E7F1EE" opacity=".5" filter="url(#blur)"/><circle cx="1280" cy="720" r="180" fill="#F2EAD9" opacity=".55" filter="url(#blur)"/><text x="70" y="70" font-size="12.5" fill="#9A7B4F" font-weight="700" font-family="'Helvetica Neue',Arial,sans-serif" letter-spacing="3">LOGIC &amp; SAFETY FLOW</text><line x1="70" y1="82" x2="196" y2="82" stroke="#C2A36B" stroke-width="1.4"/><text x="66" y="124" font-size="32" fill="#14110D" font-weight="600" font-family="Georgia,'Times New Roman',serif">How every consultation stays grounded and safe.</text><rect x="70" y="256" width="180" height="88" rx="14" fill="#FFFFFF" stroke="rgba(20,16,11,.16)" stroke-width="1.2" filter="url(#sh2)"/><text x="86" y="278" font-size="8.5" fill="#9A7B4F" font-weight="700" font-family="'Helvetica Neue',Arial,sans-serif" letter-spacing="1">ENTRY</text><text x="86" y="298" font-size="14" fill="#14110D" font-weight="700" font-family="'Helvetica Neue',Arial,sans-serif">Shopper</text><text x="86" y="316" font-size="10" fill="#6E665C" font-weight="400" font-family="'Helvetica Neue',Arial,sans-serif">Types / speaks a concern</text><rect x="330" y="242" width="200" height="116" rx="14" fill="#FFFFFF" stroke="rgba(20,16,11,.16)" stroke-width="1.2" filter="url(#sh2)"/><text x="346" y="264" font-size="8.5" fill="#9A7B4F" font-weight="700" font-family="'Helvetica Neue',Arial,sans-serif" letter-spacing="1">DELIVERY</text><text x="346" y="284" font-size="14" fill="#14110D" font-weight="700" font-family="'Helvetica Neue',Arial,sans-serif">Widget</text><text x="346" y="296" font-size="10.5" fill="#3A332C" font-weight="400" font-family="'Helvetica Neue',Arial,sans-serif">Private → own catalog</text><text x="346" y="316" font-size="10.5" fill="#3A332C" font-weight="400" font-family="'Helvetica Neue',Arial,sans-serif">Public → Cicabelle +</text><text x="346" y="332" font-size="10.5" fill="#9A6B2F" font-weight="600" font-family="'Helvetica Neue',Arial,sans-serif">sponsored marketplace</text><rect x="590" y="242" width="210" height="116" rx="14" fill="#FFFFFF" stroke="rgba(20,16,11,.16)" stroke-width="1.2" filter="url(#sh2)"/><text x="606" y="264" font-size="8.5" fill="#CC6B3D" font-weight="700" font-family="'Helvetica Neue',Arial,sans-serif" letter-spacing="1">GATE 1</text><text x="606" y="284" font-size="14" fill="#14110D" font-weight="700" font-family="'Helvetica Neue',Arial,sans-serif">Input safety gate</text><text x="606" y="302" font-size="10" fill="#6E665C" font-weight="400" font-family="'Helvetica Neue',Arial,sans-serif">Deterministic triage</text><text x="606" y="322" font-size="9" fill="#6E665C" font-weight="600" font-family="'Helvetica Neue',Arial,sans-serif">LOW · CAUTION · REFER · URGENT</text><rect x="850" y="100" width="250" height="92" rx="14" fill="#FFF6EF" stroke="#F0D9C8" stroke-width="1"/><text x="866" y="122" font-size="8.5" fill="#CC6B3D" font-weight="700" font-family="'Helvetica Neue',Arial,sans-serif" letter-spacing="1">URGENT / REFER</text><text x="866" y="142" font-size="14" fill="#7A3F25" font-weight="700" font-family="'Helvetica Neue',Arial,sans-serif">Referral · see a professional</text><text x="866" y="160" font-size="10" fill="#7A3F25" font-weight="400" font-family="'Helvetica Neue',Arial,sans-serif">Red-flag → no products shown</text><rect x="860" y="242" width="230" height="116" rx="14" fill="#FFFFFF" stroke="rgba(20,16,11,.16)" stroke-width="1.2" filter="url(#sh2)"/><text x="876" y="264" font-size="8.5" fill="#1F6F5C" font-weight="700" font-family="'Helvetica Neue',Arial,sans-serif" letter-spacing="1">OK PATH</text><text x="876" y="284" font-size="14" fill="#14110D" font-weight="700" font-family="'Helvetica Neue',Arial,sans-serif">Grounded retrieval</text><text x="876" y="302" font-size="10" fill="#6E665C" font-weight="400" font-family="'Helvetica Neue',Arial,sans-serif">pgvector over tenant catalog</text><text x="876" y="324" font-size="9.5" fill="#6E665C" font-weight="400" font-family="'Helvetica Neue',Arial,sans-serif">only real, in-stock SKUs</text><rect x="870" y="450" width="250" height="92" rx="14" fill="#FFFFFF" stroke="rgba(20,16,11,.16)" stroke-width="1.2" filter="url(#sh2)"/><text x="886" y="472" font-size="8.5" fill="#1F6F5C" font-weight="700" font-family="'Helvetica Neue',Arial,sans-serif" letter-spacing="1">AI</text><text x="886" y="492" font-size="14" fill="#14110D" font-weight="700" font-family="'Helvetica Neue',Arial,sans-serif">Claude · grounded synthesis</text><text x="886" y="510" font-size="10" fill="#6E665C" font-weight="400" font-family="'Helvetica Neue',Arial,sans-serif">Explains; never invents or diagnoses</text><rect x="1100" y="450" width="260" height="92" rx="14" fill="#FFFFFF" stroke="rgba(20,16,11,.16)" stroke-width="1.2" filter="url(#sh2)"/><text x="1116" y="472" font-size="8.5" fill="#CC6B3D" font-weight="700" font-family="'Helvetica Neue',Arial,sans-serif" letter-spacing="1">GATE 2</text><text x="1116" y="492" font-size="14" fill="#14110D" font-weight="700" font-family="'Helvetica Neue',Arial,sans-serif">Output safety gate</text><text x="1116" y="510" font-size="10" fill="#6E665C" font-weight="400" font-family="'Helvetica Neue',Arial,sans-serif">Rewrites diagnosis / cure / guarantee</text><rect x="1100" y="242" width="260" height="116" rx="14" fill="#FFFFFF" stroke="rgba(20,16,11,.16)" stroke-width="1.2" filter="url(#sh2)"/><text x="1116" y="264" font-size="8.5" fill="#1F6F5C" font-weight="700" font-family="'Helvetica Neue',Arial,sans-serif" letter-spacing="1">DELIVER</text><text x="1116" y="284" font-size="14" fill="#14110D" font-weight="700" font-family="'Helvetica Neue',Arial,sans-serif">Routine results</text><text x="1116" y="302" font-size="10" fill="#6E665C" font-weight="400" font-family="'Helvetica Neue',Arial,sans-serif">Cards · AED · why · add-to-cart</text><text x="1116" y="324" font-size="9.5" fill="#9A6B2F" font-weight="600" font-family="'Helvetica Neue',Arial,sans-serif">Public: + disclosed Sponsored</text><rect x="1100" y="100" width="260" height="92" rx="14" fill="#FFFFFF" stroke="rgba(20,16,11,.16)" stroke-width="1.2" filter="url(#sh2)"/><text x="1116" y="122" font-size="8.5" fill="#9A7B4F" font-weight="700" font-family="'Helvetica Neue',Arial,sans-serif" letter-spacing="1">OUTCOME</text><text x="1116" y="142" font-size="14" fill="#14110D" font-weight="700" font-family="'Helvetica Neue',Arial,sans-serif">Add to cart + attribution</text><text x="1116" y="160" font-size="10" fill="#6E665C" font-weight="400" font-family="'Helvetica Neue',Arial,sans-serif">Impression · click · conversion</text><path d="M250 300 C 290 300, 290 300, 330 300" fill="none" stroke="#A89E92" stroke-width="2" marker-end="url(#arr)"/><path d="M530 300 C 560 300, 560 300, 590 300" fill="none" stroke="#A89E92" stroke-width="2" marker-end="url(#arr)"/><path d="M800 280 C 825 280, 825 146, 850 146" fill="none" stroke="#CC6B3D" stroke-width="2" marker-end="url(#arrW)"/><path d="M800 310 C 830 310, 830 300, 860 300" fill="none" stroke="#1F6F5C" stroke-width="2" marker-end="url(#arrT)"/><path d="M975 358 C 985 358, 985 450, 995 450" fill="none" stroke="#1F6F5C" stroke-width="2" marker-end="url(#arrT)"/><path d="M1120 496 C 1110 496, 1110 496, 1100 496" fill="none" stroke="#A89E92" stroke-width="2" marker-end="url(#arr)"/><path d="M1230 450 C 1230 450, 1230 358, 1230 358" fill="none" stroke="#1F6F5C" stroke-width="2" marker-end="url(#arrT)"/><path d="M1230 242 C 1230 242, 1230 192, 1230 192" fill="none" stroke="#A89E92" stroke-width="2" marker-end="url(#arr)"/><line x1="70" y1="750" x2="1390" y2="750" stroke="rgba(20,16,11,.10)" stroke-width="1"/><circle cx="76" cy="768" r="5" fill="#CC6B3D"/><text x="90" y="772" font-size="11.5" fill="#3A332C" font-weight="600" font-family="'Helvetica Neue',Arial,sans-serif">Advisor, not medical</text><circle cx="276" cy="768" r="5" fill="#1F6F5C"/><text x="290" y="772" font-size="11.5" fill="#3A332C" font-weight="600" font-family="'Helvetica Neue',Arial,sans-serif">Catalog-grounded only</text><circle cx="483" cy="768" r="5" fill="#9A6B2F"/><text x="497" y="772" font-size="11.5" fill="#3A332C" font-weight="600" font-family="'Helvetica Neue',Arial,sans-serif">Sponsored disclosed &amp; suppressed on red flags</text><circle cx="858" cy="768" r="5" fill="#9A7B4F"/><text x="872" y="772" font-size="11.5" fill="#3A332C" font-weight="600" font-family="'Helvetica Neue',Arial,sans-serif">Bilingual EN / AR</text><rect x="0" y="0" width="1460" height="860" fill="none" filter="url(#grain)"/></svg>